<svg width="30" height="24" viewBox="0 0 30 24" fill="none" xmlns="http://www.w3.org/2000/svg">
<path d="M29.1474 9.66314L20.3684 0.852616C19.2316 -0.284226 17.4316 -0.284226 16.2947 0.852617C15.1579 1.98946 15.1579 3.78946 16.2947 4.9263L20.1789 8.81051L2.87368 8.81051C1.29474 8.81051 -5.85461e-07 10.1052 -5.15763e-07 11.6842C-4.46066e-07 13.2631 1.29474 14.5579 2.87368 14.5579L20.1789 14.5579L16.3263 18.4421C15.1895 19.5789 15.1895 21.3789 16.3263 22.5158C16.8947 23.0842 17.6211 23.3684 18.3474 23.3684C19.0737 23.3684 19.8316 23.0842 20.3684 22.5158L29.1474 13.7368C29.6842 13.2 30 12.4737 30 11.7158C30 10.9579 29.6842 10.2 29.1474 9.66314Z" fill="#F16855"/>
</svg>
