<svg width="22" height="16" viewBox="0 0 22 16" fill="none" xmlns="http://www.w3.org/2000/svg">
<rect width="22" height="16" fill="#E5E5E5"/>
<g clip-path="url(#clip0)">
<rect width="1440" height="4875" transform="translate(-142 -4478)" fill="white"/>
<rect x="1298" y="397" width="1440" height="751" transform="rotate(-180 1298 397)" fill="#FFF0ED" fill-opacity="0.26"/>
<rect x="-42" y="-22" width="200" height="60" rx="30" fill="#F16855"/>
<path d="M19.382 0H2.618C1.92383 0.000529702 1.25823 0.276524 0.76738 0.767379C0.276524 1.25823 0.000529702 1.92383 0 2.618V13.382C0.000529702 14.0762 0.276524 14.7418 0.76738 15.2326C1.25823 15.7235 1.92383 15.9995 2.618 16H19.382C20.0762 15.9995 20.7418 15.7235 21.2326 15.2326C21.7235 14.7418 21.9995 14.0762 22 13.382V2.618C21.9995 1.92383 21.7235 1.25823 21.2326 0.767379C20.7418 0.276524 20.0762 0.000529702 19.382 0ZM2.618 2H19.382C19.5459 2 19.7031 2.06511 19.819 2.18101C19.9349 2.29691 20 2.4541 20 2.618V4.382L11.044 8.86L2 3.434V2.618C2 2.4541 2.06511 2.29691 2.18101 2.18101C2.29691 2.06511 2.4541 2 2.618 2ZM19.382 14H2.618C2.4541 14 2.29691 13.9349 2.18101 13.819C2.06511 13.7031 2 13.5459 2 13.382V5.766L10.485 10.857C10.6292 10.9438 10.793 10.9927 10.9611 10.9994C11.1293 11.006 11.2964 10.9701 11.447 10.895L20 6.618V13.382C20 13.5459 19.9349 13.7031 19.819 13.819C19.7031 13.9349 19.5459 14 19.382 14Z" fill="white"/>
</g>
<defs>
<clipPath id="clip0">
<rect width="1440" height="4875" fill="white" transform="translate(-142 -4478)"/>
</clipPath>
</defs>
</svg>
