<svg width="40" height="39" viewBox="0 0 40 39" fill="none" xmlns="http://www.w3.org/2000/svg">
<path fill-rule="evenodd" clip-rule="evenodd" d="M0.961914 19.0382C0.961914 8.52529 9.4872 0 20.0001 0C30.513 0 39.0382 8.52529 39.0382 19.0382C39.0382 29.5511 30.513 38.0763 20.0001 38.0763C9.4872 38.0763 0.961914 29.5511 0.961914 19.0382ZM9.83121 28.7799H14.4679V14.8304H9.83121V28.7799ZM12.1495 12.926H12.1193C10.5634 12.926 9.55713 11.855 9.55713 10.5164C9.55713 9.14752 10.5942 8.10608 12.1803 8.10608C13.7665 8.10608 14.7425 9.14752 14.7728 10.5164C14.7728 11.855 13.7665 12.926 12.1495 12.926ZM26.5503 28.7804H31.1863V20.7818C31.1863 16.4972 28.8989 14.5035 25.8484 14.5035C23.3885 14.5035 22.286 15.8555 21.6699 16.806V14.8309H17.0335C17.0942 16.1396 17.0335 28.7804 17.0335 28.7804H21.6699V20.9904C21.6699 20.5735 21.6998 20.1569 21.8224 19.8589C22.1576 19.026 22.9205 18.1633 24.2013 18.1633C25.8789 18.1633 26.5503 19.4423 26.5503 21.3178V28.7804Z" fill="#25202F"/>
</svg>
