<svg width="22" height="22" viewBox="0 0 22 22" fill="none" xmlns="http://www.w3.org/2000/svg">
<path d="M3.30032 0C1.49097 0 0 1.49071 0 3.29992V12.0999C0 13.9091 1.49097 15.4 3.30032 15.4H6.60279V18.7021C6.60279 20.5112 8.08951 22 9.89882 22H18.704C20.5133 22 22 20.5112 22 18.7021V9.90003C22 8.09086 20.5133 6.60429 18.704 6.60429H15.4015V3.29992C15.4015 1.49071 13.9105 0 12.1012 0H3.30032ZM3.30032 2.19991H12.1012C12.7296 2.19991 13.2013 2.67156 13.2013 3.29992V6.60429H9.89882C8.08951 6.60429 6.60279 8.09086 6.60279 9.90003V13.1999H3.30032C2.67191 13.1999 2.20021 12.7283 2.20021 12.0999V3.29992C2.20021 2.67156 2.67191 2.19991 3.30032 2.19991ZM9.89882 8.79569H18.704C19.3324 8.79569 19.7998 9.27162 19.7998 9.90003V18.7021C19.7998 19.3305 19.3324 19.7999 18.704 19.7999H9.89882C9.27037 19.7999 8.80301 19.3305 8.80301 18.7021V9.90003C8.80301 9.27162 9.27037 8.79582 9.89882 8.79582V8.79569Z" fill="#F16855"/>
</svg>
