<svg width="39" height="39" viewBox="0 0 39 39" fill="none" xmlns="http://www.w3.org/2000/svg">
<path fill-rule="evenodd" clip-rule="evenodd" d="M0 19.0382C0 8.52529 8.52529 0 19.0382 0C29.5511 0 38.0763 8.52529 38.0763 19.0382C38.0763 29.5511 29.5511 38.0763 19.0382 38.0763C8.52529 38.0763 0 29.5511 0 19.0382ZM27.7433 15.4087C27.7433 15.2195 27.7392 15.0313 27.7308 14.8439C28.584 14.2272 29.3256 13.4574 29.9104 12.5809C29.1275 12.929 28.285 13.1634 27.401 13.2691C28.3033 12.7279 28.9959 11.8721 29.3227 10.8522C28.4782 11.3527 27.5434 11.7164 26.5479 11.9128C25.7504 11.0634 24.6152 10.532 23.3582 10.532C20.945 10.532 18.9879 12.4891 18.9879 14.9014C18.9879 15.2442 19.0265 15.5777 19.1015 15.8979C15.4697 15.7151 12.2492 13.9762 10.0943 11.3321C9.71893 11.9779 9.50251 12.7279 9.50251 13.5285C9.50251 15.0447 10.2738 16.383 11.4471 17.1659C10.7302 17.1438 10.0568 16.9469 9.46794 16.6195C9.46736 16.6378 9.46736 16.6555 9.46736 16.6752C9.46736 18.7912 10.9736 20.5583 12.9731 20.9586C12.6059 21.0589 12.2196 21.1126 11.8207 21.1126C11.5398 21.1126 11.2658 21.0847 10.9995 21.0336C11.5561 22.7699 13.1689 24.0333 15.0818 24.0687C13.5861 25.2409 11.7019 25.9393 9.65444 25.9393C9.30206 25.9393 8.95405 25.9192 8.61213 25.8788C10.546 27.1184 12.8424 27.8417 15.3102 27.8417C23.348 27.8414 27.7433 21.1829 27.7433 15.4087Z" fill="#25202F"/>
</svg>
