<svg width="39" height="39" viewBox="0 0 39 39" fill="none" xmlns="http://www.w3.org/2000/svg">
<rect width="39" height="39" fill="#E5E5E5"/>
<g clip-path="url(#clip0)">
<rect width="1440" height="4875" transform="translate(-234 -780)" fill="white"/>
<rect x="-234" y="-780" width="1440" height="873" fill="#FFF0ED" fill-opacity="0.26"/>
<path d="M16.2133 22.2915L21.8667 19.04L16.2133 15.7886V22.2915Z" fill="#25202F"/>
<path d="M19.04 0C15.2742 0 11.5931 1.11668 8.46195 3.20882C5.33084 5.30096 2.89043 8.2746 1.44934 11.7537C0.00824974 15.2328 -0.368806 19.0611 0.365857 22.7545C1.10052 26.4479 2.9139 29.8405 5.57669 32.5033C8.23949 35.1661 11.6321 36.9795 15.3255 37.7141C19.0189 38.4488 22.8472 38.0718 26.3263 36.6307C29.8054 35.1896 32.779 32.7492 34.8712 29.618C36.9633 26.4869 38.08 22.8058 38.08 19.04C38.08 13.9903 36.074 9.14738 32.5033 5.57669C28.9326 2.00599 24.0897 0 19.04 0ZM31.4892 23.1336C31.4892 24.2989 31.0263 25.4165 30.2023 26.2405C29.3783 27.0645 28.2607 27.5274 27.0954 27.5274H10.9846C9.8193 27.5274 8.70171 27.0645 7.8777 26.2405C7.0537 25.4165 6.59078 24.2989 6.59078 23.1336V14.9464C6.59078 13.7811 7.0537 12.6635 7.8777 11.8395C8.70171 11.0155 9.8193 10.5526 10.9846 10.5526H27.0954C28.2607 10.5526 29.3783 11.0155 30.2023 11.8395C31.0263 12.6635 31.4892 13.7811 31.4892 14.9464V23.1336Z" fill="#25202F"/>
</g>
<defs>
<clipPath id="clip0">
<rect width="1440" height="4875" fill="white" transform="translate(-234 -780)"/>
</clipPath>
</defs>
</svg>
